<svg width="1152" height="479" viewBox="0 0 1152 479" fill="none" xmlns="http://www.w3.org/2000/svg">
<path d="M417.797 268.969H450.023V314.477H417.797V376H361.352V314.477H244.75L242.211 278.93L360.766 91.625H417.797V268.969ZM298.461 268.969H361.352V168.578L357.641 175.023L298.461 268.969ZM671.898 258.422C671.898 297.745 663.76 327.823 647.484 348.656C631.208 369.49 607.38 379.906 576 379.906C545.01 379.906 521.312 369.685 504.906 349.242C488.5 328.799 480.102 299.503 479.711 261.352V209.008C479.711 169.294 487.914 139.151 504.32 118.578C520.857 98.0052 544.62 87.7188 575.609 87.7188C606.599 87.7188 630.297 97.9401 646.703 118.383C663.109 138.695 671.508 167.927 671.898 206.078V258.422ZM615.453 201C615.453 177.432 612.198 160.31 605.688 149.633C599.307 138.826 589.281 133.422 575.609 133.422C562.328 133.422 552.497 138.565 546.117 148.852C539.867 159.008 536.547 174.958 536.156 196.703V265.844C536.156 289.021 539.281 306.273 545.531 317.602C551.911 328.799 562.068 334.398 576 334.398C589.802 334.398 599.763 328.995 605.883 318.188C612.003 307.38 615.193 290.844 615.453 268.578V201ZM877.172 268.969H909.398V314.477H877.172V376H820.727V314.477H704.125L701.586 278.93L820.141 91.625H877.172V268.969ZM757.836 268.969H820.727V168.578L817.016 175.023L757.836 268.969Z" fill="#C4C4C4"/>
<path d="M361.437 220.554C361.437 226.658 360.045 231.553 357.262 235.239C354.503 238.901 350.768 240.732 346.056 240.732C342.052 240.732 338.817 239.341 336.352 236.558V255.234H325.768V200.376H335.583L335.949 204.258C338.512 201.182 341.857 199.644 345.983 199.644C350.866 199.644 354.662 201.45 357.372 205.063C360.082 208.677 361.437 213.657 361.437 220.005V220.554ZM350.854 219.785C350.854 216.099 350.194 213.254 348.876 211.252C347.582 209.25 345.69 208.25 343.2 208.25C339.879 208.25 337.597 209.519 336.352 212.058V228.281C337.646 230.894 339.953 232.2 343.273 232.2C348.327 232.2 350.854 228.062 350.854 219.785ZM390.99 240C390.502 239.048 390.148 237.864 389.928 236.448C387.365 239.304 384.032 240.732 379.931 240.732C376.049 240.732 372.826 239.609 370.263 237.363C367.724 235.117 366.454 232.285 366.454 228.867C366.454 224.668 368.004 221.445 371.105 219.199C374.23 216.953 378.734 215.818 384.618 215.793H389.489V213.523C389.489 211.692 389.013 210.227 388.061 209.128C387.133 208.03 385.656 207.48 383.629 207.48C381.847 207.48 380.443 207.908 379.418 208.762C378.417 209.617 377.917 210.789 377.917 212.278H367.333C367.333 209.983 368.041 207.859 369.457 205.906C370.873 203.953 372.875 202.427 375.463 201.328C378.051 200.205 380.956 199.644 384.179 199.644C389.062 199.644 392.931 200.876 395.788 203.342C398.668 205.784 400.109 209.226 400.109 213.669V230.845C400.133 234.604 400.658 237.449 401.684 239.377V240H390.99ZM382.238 232.639C383.8 232.639 385.241 232.297 386.559 231.614C387.877 230.906 388.854 229.966 389.489 228.794V221.982H385.534C380.236 221.982 377.416 223.813 377.074 227.476L377.038 228.098C377.038 229.417 377.501 230.503 378.429 231.357C379.357 232.212 380.626 232.639 382.238 232.639ZM406.701 219.895C406.701 213.816 408.141 208.921 411.022 205.21C413.927 201.499 417.833 199.644 422.741 199.644C427.086 199.644 430.468 201.133 432.885 204.111L433.324 200.376H442.919V238.682C442.919 242.148 442.125 245.164 440.539 247.727C438.976 250.291 436.767 252.244 433.91 253.586C431.054 254.929 427.709 255.601 423.876 255.601C420.971 255.601 418.139 255.015 415.38 253.843C412.621 252.695 410.534 251.206 409.118 249.375L413.805 242.93C416.442 245.884 419.64 247.361 423.4 247.361C426.208 247.361 428.393 246.604 429.955 245.09C431.518 243.601 432.299 241.477 432.299 238.718V236.594C429.857 239.353 426.647 240.732 422.667 240.732C417.907 240.732 414.049 238.877 411.095 235.166C408.166 231.431 406.701 226.487 406.701 220.334V219.895ZM417.284 220.664C417.284 224.253 418.004 227.073 419.445 229.124C420.885 231.15 422.863 232.163 425.377 232.163C428.6 232.163 430.907 230.955 432.299 228.538V211.875C430.883 209.458 428.6 208.25 425.451 208.25C422.912 208.25 420.91 209.287 419.445 211.362C418.004 213.438 417.284 216.538 417.284 220.664ZM469.323 240.732C463.512 240.732 458.776 238.95 455.114 235.386C451.476 231.821 449.657 227.073 449.657 221.14V220.115C449.657 216.135 450.426 212.583 451.964 209.458C453.502 206.309 455.675 203.892 458.483 202.207C461.315 200.498 464.538 199.644 468.151 199.644C473.571 199.644 477.831 201.353 480.932 204.771C484.057 208.188 485.619 213.035 485.619 219.309V223.63H460.387C460.729 226.218 461.754 228.293 463.463 229.856C465.197 231.418 467.382 232.2 470.019 232.2C474.096 232.2 477.282 230.723 479.577 227.769L484.777 233.591C483.19 235.837 481.042 237.595 478.332 238.865C475.622 240.11 472.619 240.732 469.323 240.732ZM468.114 208.213C466.015 208.213 464.306 208.921 462.987 210.337C461.693 211.753 460.863 213.779 460.497 216.416H475.219V215.574C475.17 213.23 474.535 211.423 473.314 210.154C472.094 208.86 470.36 208.213 468.114 208.213ZM520.08 200.376L520.409 204.954C523.241 201.414 527.038 199.644 531.798 199.644C535.998 199.644 539.123 200.876 541.173 203.342C543.224 205.808 544.274 209.495 544.323 214.402V240H533.739V214.658C533.739 212.412 533.251 210.789 532.274 209.788C531.298 208.762 529.674 208.25 527.404 208.25C524.425 208.25 522.191 209.519 520.702 212.058V240H510.119V200.376H520.08ZM550.731 219.822C550.731 215.891 551.488 212.388 553.002 209.312C554.516 206.235 556.688 203.855 559.521 202.17C562.377 200.486 565.685 199.644 569.445 199.644C574.792 199.644 579.149 201.279 582.519 204.551C585.912 207.822 587.804 212.266 588.195 217.881L588.268 220.591C588.268 226.67 586.571 231.553 583.178 235.239C579.784 238.901 575.231 240.732 569.518 240.732C563.805 240.732 559.24 238.901 555.822 235.239C552.428 231.577 550.731 226.597 550.731 220.298V219.822ZM561.315 220.591C561.315 224.351 562.023 227.231 563.439 229.233C564.855 231.211 566.881 232.2 569.518 232.2C572.082 232.2 574.083 231.223 575.524 229.27C576.964 227.292 577.685 224.143 577.685 219.822C577.685 216.135 576.964 213.279 575.524 211.252C574.083 209.226 572.057 208.213 569.445 208.213C566.857 208.213 564.855 209.226 563.439 211.252C562.023 213.254 561.315 216.367 561.315 220.591ZM607.458 190.635V200.376H614.232V208.14H607.458V227.915C607.458 229.38 607.738 230.43 608.3 231.064C608.861 231.699 609.936 232.017 611.522 232.017C612.694 232.017 613.732 231.931 614.635 231.76V239.78C612.56 240.415 610.424 240.732 608.227 240.732C600.805 240.732 597.021 236.985 596.874 229.49V208.14H591.088V200.376H596.874V190.635H607.458ZM641.698 240V208.14H635.802V200.376H641.698V197.007C641.698 192.563 642.968 189.121 645.507 186.68C648.07 184.214 651.647 182.981 656.237 182.981C657.702 182.981 659.496 183.225 661.62 183.713L661.51 191.917C660.631 191.697 659.557 191.587 658.288 191.587C654.308 191.587 652.318 193.455 652.318 197.19V200.376H660.192V208.14H652.318V240H641.698ZM664.037 219.822C664.037 215.891 664.794 212.388 666.308 209.312C667.821 206.235 669.994 203.855 672.826 202.17C675.683 200.486 678.991 199.644 682.75 199.644C688.097 199.644 692.455 201.279 695.824 204.551C699.218 207.822 701.11 212.266 701.5 217.881L701.574 220.591C701.574 226.67 699.877 231.553 696.483 235.239C693.09 238.901 688.537 240.732 682.824 240.732C677.111 240.732 672.545 238.901 669.127 235.239C665.734 231.577 664.037 226.597 664.037 220.298V219.822ZM674.621 220.591C674.621 224.351 675.329 227.231 676.745 229.233C678.161 231.211 680.187 232.2 682.824 232.2C685.387 232.2 687.389 231.223 688.83 229.27C690.27 227.292 690.99 224.143 690.99 219.822C690.99 216.135 690.27 213.279 688.83 211.252C687.389 209.226 685.363 208.213 682.75 208.213C680.163 208.213 678.161 209.226 676.745 211.252C675.329 213.254 674.621 216.367 674.621 220.591ZM731.823 235.972C729.21 239.146 725.597 240.732 720.983 240.732C716.735 240.732 713.488 239.512 711.242 237.07C709.02 234.629 707.885 231.052 707.836 226.34V200.376H718.419V225.974C718.419 230.1 720.299 232.163 724.059 232.163C727.648 232.163 730.114 230.918 731.457 228.428V200.376H742.077V240H732.116L731.823 235.972ZM759.801 200.376L760.131 204.954C762.963 201.414 766.759 199.644 771.52 199.644C775.719 199.644 778.844 200.876 780.895 203.342C782.946 205.808 783.996 209.495 784.044 214.402V240H773.461V214.658C773.461 212.412 772.973 210.789 771.996 209.788C771.02 208.762 769.396 208.25 767.125 208.25C764.147 208.25 761.913 209.519 760.424 212.058V240H749.84V200.376H759.801ZM790.453 219.895C790.453 213.718 791.833 208.799 794.591 205.137C797.375 201.475 801.171 199.644 805.98 199.644C809.838 199.644 813.024 201.084 815.539 203.965V183.75H826.159V240H816.601L816.088 235.789C813.451 239.084 810.058 240.732 805.907 240.732C801.244 240.732 797.497 238.901 794.665 235.239C791.857 231.553 790.453 226.438 790.453 219.895ZM801.037 220.664C801.037 224.375 801.684 227.219 802.978 229.197C804.271 231.174 806.151 232.163 808.617 232.163C811.889 232.163 814.196 230.784 815.539 228.025V212.388C814.22 209.629 811.938 208.25 808.69 208.25C803.588 208.25 801.037 212.388 801.037 220.664Z" fill="black"/>
</svg>
